<?xml version="1.0" encoding="UTF-8" standalone="no"?>
<!DOCTYPE svg PUBLIC "-//W3C//DTD SVG 1.1//EN" "http://www.w3.org/Graphics/SVG/1.1/DTD/svg11.dtd">
<svg width="100%" height="100%" viewBox="0 0 323 244" version="1.1" xmlns="http://www.w3.org/2000/svg" xmlns:xlink="http://www.w3.org/1999/xlink" xml:space="preserve" xmlns:serif="http://www.serif.com/" style="fill-rule:evenodd;clip-rule:evenodd;stroke-linejoin:round;stroke-miterlimit:2;">
    <g transform="matrix(1,0,0,1,-318.33,-55.8175)">
        <g>
            <path d="M548.007,122.842L507.9,122.842C505.414,122.842 503.4,124.857 503.4,127.342L503.4,177.307C503.4,177.307 473.759,125.658 473.759,125.658C472.744,123.89 470.667,123.025 468.697,123.55C466.727,124.075 465.356,125.859 465.356,127.898L465.356,176.639C465.356,176.639 437.524,126.333 437.524,126.333C436.53,124.537 434.448,123.641 432.461,124.154C430.474,124.667 429.086,126.459 429.086,128.511L429.086,292.877C429.086,295.362 431.101,297.377 433.586,297.377L479.45,297.377C481.934,297.377 483.95,295.361 483.95,292.877C483.95,290.393 481.934,288.377 479.45,288.377L438.086,288.377C438.086,288.377 438.086,145.94 438.086,145.94C438.086,145.94 465.919,196.246 465.919,196.246C466.912,198.042 468.994,198.938 470.981,198.425C472.968,197.912 474.356,196.12 474.356,194.068L474.356,144.78C474.356,144.78 503.997,196.429 503.997,196.429C505.011,198.198 507.088,199.063 509.059,198.538C511.029,198.012 512.4,196.228 512.4,194.189L512.4,131.842C512.4,131.842 548.007,131.842 548.007,131.842C550.491,131.842 552.507,129.825 552.507,127.342C552.507,124.858 550.491,122.842 548.007,122.842Z" style="fill:rgb(130,209,159);"/>
            <path d="M507.9,198.689L547.995,198.689C550.479,198.689 552.495,196.673 552.495,194.189C552.495,191.706 550.479,189.689 547.995,189.689L507.9,189.689C505.416,189.689 503.4,191.706 503.4,194.189C503.4,196.673 505.416,198.689 507.9,198.689Z" style="fill:rgb(130,209,159);"/>
            <path d="M433.586,124.011L367.434,124.011C365.304,123.932 342.877,123.476 329.133,138.437C322.909,145.213 318.33,155.107 318.33,169.68C318.33,183.09 319.068,193.821 325.571,201.299C331.973,208.661 344.329,213.332 368.807,213.332C368.925,213.332 369.043,213.327 369.161,213.318C369.161,213.318 392.671,211.289 406.357,223.265C412.642,228.765 414.734,239.568 414.734,252.35C414.734,264.232 412.256,272.276 407.053,277.601C401.802,282.975 393.982,285.483 384.043,286.828C369.388,288.811 350.402,288.079 327.825,288.079C325.341,288.079 323.325,290.095 323.325,292.579C323.325,295.062 325.341,297.079 327.825,297.079C350.887,297.079 370.28,297.772 385.249,295.747C397.529,294.085 407.002,290.531 413.49,283.89C420.028,277.2 423.734,267.28 423.734,252.35C423.734,236.454 420.101,223.332 412.283,216.492C396.943,203.067 371.248,204.184 368.665,204.332C348.295,204.32 337.704,201.535 332.362,195.393C327.109,189.353 327.33,180.512 327.33,169.68C327.33,157.985 330.766,149.963 335.761,144.526C347.495,131.753 367.089,133.004 367.089,133.004C367.177,133.009 367.265,133.011 367.353,133.011L433.586,133.011C436.07,133.011 438.086,130.995 438.086,128.511C438.086,126.028 436.07,124.011 433.586,124.011Z" style="fill:rgb(130,209,159);"/>
            <g transform="matrix(0.699122,0,0,0.699122,163.097,50.1816)">
                <path d="M511.991,165.681L530.469,165.681C534.021,165.681 536.905,162.797 536.905,159.245C536.905,155.692 534.021,152.808 530.469,152.808L511.991,152.808C508.439,152.808 505.554,155.692 505.554,159.245C505.554,162.797 508.439,165.681 511.991,165.681Z" style="fill:rgb(130,209,159);"/>
            </g>
            <g transform="matrix(3.3751,0,0,3.3751,-1125.32,-375.953)">
                <path d="M508.505,160.578L521.887,160.578C522.622,160.578 523.22,159.98 523.22,159.245C523.22,158.509 522.622,157.911 521.887,157.911L508.505,157.911C507.769,157.911 507.172,158.509 507.172,159.245C507.172,159.98 507.769,160.578 508.505,160.578Z" style="fill:rgb(130,209,159);"/>
            </g>
            <g transform="matrix(0.697078,0,0,0.699122,95.7521,143.113)">
                <path d="M503.409,165.681L521.887,165.681C525.449,165.681 528.342,162.797 528.342,159.245C528.342,155.692 525.449,152.808 521.887,152.808L503.409,152.808C499.846,152.808 496.953,155.692 496.953,159.245C496.953,162.797 499.846,165.681 503.409,165.681Z" style="fill:rgb(130,209,159);"/>
            </g>
            <g transform="matrix(0.697078,0,0,0.699122,252.841,143.113)">
                <path d="M503.409,165.681L521.887,165.681C525.449,165.681 528.342,162.797 528.342,159.245C528.342,155.692 525.449,152.808 521.887,152.808L503.409,152.808C499.846,152.808 496.953,155.692 496.953,159.245C496.953,162.797 499.846,165.681 503.409,165.681Z" style="fill:rgb(130,209,159);"/>
            </g>
            <path d="M421.326,190.281L386.471,59.161C385.938,57.158 384.106,55.778 382.033,55.818C379.961,55.859 378.184,57.311 377.731,59.333L348.919,187.901C348.376,190.324 349.903,192.733 352.326,193.276C354.75,193.819 357.158,192.292 357.702,189.869L382.494,79.235C382.494,79.235 412.628,192.593 412.628,192.593C413.266,194.993 415.733,196.424 418.133,195.786C420.533,195.148 421.964,192.681 421.326,190.281Z" style="fill:rgb(130,209,159);"/>
            <g transform="matrix(0.904581,0,0,1,41.4151,0)">
                <path d="M434.035,220.722L481.572,220.722C481.681,220.722 481.791,220.719 481.9,220.712C481.9,220.712 489.258,220.277 496.616,222.202C502.898,223.845 509.449,227.297 509.449,235.372C509.449,235.619 509.472,235.866 509.517,236.11C509.517,236.11 510.418,241.143 506.702,245.174C503.88,248.236 498.575,250.445 489.171,250.445C487.289,250.445 485.568,251.406 484.724,252.927C483.88,254.449 484.058,256.271 485.183,257.635L517.049,296.283C518.69,298.274 521.81,298.684 524.011,297.2C526.212,295.715 526.666,292.893 525.024,290.902L498.482,258.711C506.415,257.345 511.288,254.252 514.344,250.937C520.141,244.648 519.631,236.988 519.396,235.08C519.284,224.673 512.807,218.744 504.964,215.432C495.166,211.295 483.099,211.651 481.437,211.722C481.451,211.722 434.035,211.722 434.035,211.722C431.289,211.722 429.06,213.738 429.06,216.222C429.06,218.705 431.289,220.722 434.035,220.722Z" style="fill:rgb(130,209,159);"/>
            </g>
            <g transform="matrix(1,0,0,0.984026,-12.4995,4.26444)">
                <path d="M539.13,214.788L539.13,294.342C539.13,296.866 541.147,298.915 543.63,298.915C546.114,298.915 548.13,296.866 548.13,294.342L548.13,214.788C548.13,212.264 546.114,210.215 543.63,210.215C541.147,210.215 539.13,212.264 539.13,214.788Z" style="fill:rgb(130,209,159);"/>
            </g>
            <g transform="matrix(1,0,0,0.974053,-7.91406,7.63778)">
                <path d="M644.721,207.491L599.298,207.491C596.813,207.491 594.798,209.559 594.798,212.111L594.798,273.87C594.798,273.869 566.022,211.687 566.022,211.687C565.119,209.736 563.02,208.688 560.968,209.163C558.915,209.638 557.457,211.509 557.457,213.669L557.457,294.052C557.457,296.602 559.474,298.672 561.957,298.672C564.441,298.672 566.457,296.602 566.457,294.052L566.457,234.159C566.457,234.159 595.234,296.342 595.234,296.342C596.136,298.293 598.235,299.341 600.288,298.866C602.34,298.391 603.798,296.519 603.798,294.359L603.798,216.731C603.798,216.731 644.721,216.731 644.721,216.731C647.205,216.731 649.221,214.661 649.221,212.111C649.221,209.561 647.205,207.491 644.721,207.491Z" style="fill:rgb(130,209,159);"/>
            </g>
            <g transform="matrix(1,0,0,1,-7.91406,0)">
                <path d="M599.298,298.859L644.58,298.859C647.063,298.859 649.08,296.843 649.08,294.359C649.08,291.876 647.063,289.859 644.58,289.859L599.298,289.859C596.815,289.859 594.798,291.876 594.798,294.359C594.798,296.843 596.815,298.859 599.298,298.859Z" style="fill:rgb(130,209,159);"/>
            </g>
        </g>
    </g>
</svg>
