<svg width="295" height="145" viewBox="0 0 295 145" fill="none" xmlns="http://www.w3.org/2000/svg">
<path d="M32.8791 32.48C24.1431 32.48 19.7751 29.664 19.7751 24.032V9.248C19.7751 3.296 24.1431 0.319999 32.8791 0.319999C35.8551 0.319999 38.7031 0.623999 41.4231 1.232V4.688C38.3511 3.92 35.5351 3.536 32.9751 3.536C31.7271 3.536 30.6391 3.616 29.7111 3.776C28.7831 3.904 27.8871 4.144 27.0231 4.496C25.1671 5.296 24.2391 6.864 24.2391 9.2V23.792C24.2391 27.376 27.2151 29.168 33.1671 29.168C35.7271 29.168 38.5431 28.784 41.6151 28.016V31.568C38.8951 32.176 35.9831 32.48 32.8791 32.48ZM60.0209 32.48C51.3169 32.48 46.9649 29.664 46.9649 24.032V9.296C46.9649 3.344 51.3169 0.367998 60.0209 0.367998C68.8209 0.367998 73.2209 3.328 73.2209 9.248V24.032C73.2209 27.04 72.0049 29.2 69.5729 30.512C67.1409 31.824 63.9569 32.48 60.0209 32.48ZM60.1169 29.36C65.8449 29.36 68.7089 27.568 68.7089 23.984V9.152C68.7089 5.312 65.8289 3.392 60.0689 3.392C57.2849 3.392 55.1409 3.824 53.6369 4.688C52.1649 5.552 51.4289 7.04 51.4289 9.152V23.984C51.4289 27.568 54.3249 29.36 60.1169 29.36ZM80.407 0.847998H87.367L97.351 26.768L97.495 26.816L106.951 0.847998H113.671V32H109.591V5.648H109.351L99.319 32H95.143L84.823 5.648H84.583V32H80.407V0.847998ZM121.751 0.847998H128.711L138.695 26.768L138.839 26.816L148.295 0.847998H155.015V32H150.935V5.648H150.695L140.663 32H136.487L126.167 5.648H125.927V32H121.751V0.847998ZM175.239 32.48C173.543 32.48 172.055 32.368 170.775 32.144C169.527 31.92 168.295 31.536 167.079 30.992C165.799 30.416 164.807 29.536 164.103 28.352C163.431 27.168 163.095 25.728 163.095 24.032V0.847998H167.559V23.984C167.559 25.936 168.215 27.328 169.527 28.16C170.839 28.96 172.775 29.36 175.335 29.36C177.895 29.36 179.799 28.96 181.047 28.16C182.327 27.328 182.967 25.936 182.967 23.984V0.847998H187.431V24.032C187.431 29.664 183.367 32.48 175.239 32.48ZM195.532 0.847998H201.148L218.092 26.576V0.847998H222.172V32H216.556L199.612 5.84V32H195.532V0.847998ZM230.22 0.847998H234.876V32H230.22V0.847998ZM250.603 4.112H240.043V0.847998H265.819V4.112H255.307V32H250.603V4.112ZM278.633 19.424L267.353 0.847998H272.681L280.985 15.488L289.289 0.847998H294.617L283.289 19.28V32H278.633V19.424ZM113.206 88.48C110.23 88.48 106.55 88.192 102.166 87.616V81.904C107.606 82.736 111.318 83.152 113.302 83.152C117.462 83.152 119.542 82.08 119.542 79.936V77.92C119.542 76.896 119.238 76.112 118.63 75.568C118.054 75.024 116.998 74.752 115.462 74.752H111.814C104.966 74.752 101.542 72.032 101.542 66.592V64.288C101.542 61.568 102.678 59.568 104.95 58.288C107.222 57.008 110.822 56.368 115.75 56.368C118.31 56.368 121.558 56.576 125.494 56.992V62.56C120.662 61.984 117.334 61.696 115.51 61.696C112.982 61.696 111.286 61.904 110.422 62.32C109.494 62.768 109.03 63.472 109.03 64.432V66.64C109.03 68.272 110.406 69.088 113.158 69.088H116.902C120.454 69.088 123.03 69.744 124.63 71.056C126.23 72.368 127.03 74.368 127.03 77.056V79.12C127.03 82.832 125.702 85.344 123.046 86.656C121.766 87.328 120.342 87.792 118.774 88.048C117.238 88.336 115.382 88.48 113.206 88.48ZM146.011 88.48C144.603 88.48 143.339 88.416 142.219 88.288C141.131 88.16 139.931 87.92 138.619 87.568C137.147 87.184 135.931 86.688 134.971 86.08C134.011 85.44 133.211 84.56 132.571 83.44C131.899 82.32 131.563 80.992 131.563 79.456V65.776C131.563 59.504 136.379 56.368 146.011 56.368C148.475 56.368 151.771 56.72 155.899 57.424V63.04C152.187 62.144 148.923 61.696 146.107 61.696C144.923 61.696 143.995 61.728 143.323 61.792C142.683 61.856 142.011 62.016 141.307 62.272C139.803 62.784 139.051 63.92 139.051 65.68V78.928C139.051 81.744 141.627 83.152 146.779 83.152C148.987 83.152 152.091 82.688 156.091 81.76V87.424C152.667 88.128 149.307 88.48 146.011 88.48ZM160.876 56.848H168.364V88H160.876V56.848ZM175.079 56.848H198.839V62.176H182.567V69.328H197.255V74.656H182.567V82.672H199.319V88H175.079V56.848ZM204.376 56.848H211.96L227.032 78.112V56.848H233.704V88H226.12L211.048 66.4V88H204.376V56.848ZM254.199 88.48C252.791 88.48 251.527 88.416 250.407 88.288C249.319 88.16 248.119 87.92 246.807 87.568C245.335 87.184 244.119 86.688 243.159 86.08C242.199 85.44 241.399 84.56 240.759 83.44C240.087 82.32 239.751 80.992 239.751 79.456V65.776C239.751 59.504 244.567 56.368 254.199 56.368C256.663 56.368 259.959 56.72 264.087 57.424V63.04C260.375 62.144 257.111 61.696 254.295 61.696C253.111 61.696 252.183 61.728 251.511 61.792C250.871 61.856 250.199 62.016 249.495 62.272C247.991 62.784 247.239 63.92 247.239 65.68V78.928C247.239 81.744 249.815 83.152 254.967 83.152C257.175 83.152 260.279 82.688 264.279 81.76V87.424C260.855 88.128 257.495 88.48 254.199 88.48ZM269.063 56.848H292.823V62.176H276.551V69.328H291.239V74.656H276.551V82.672H293.303V88H269.063V56.848ZM96.2976 112.848H103.258L113.242 138.768L113.386 138.816L122.842 112.848H129.562V144H125.482V117.648H125.242L115.21 144H111.034L100.714 117.648H100.474V144H96.2976V112.848ZM149.785 144.48C148.089 144.48 146.601 144.368 145.321 144.144C144.073 143.92 142.841 143.536 141.625 142.992C140.345 142.416 139.353 141.536 138.649 140.352C137.977 139.168 137.641 137.728 137.641 136.032V112.848H142.105V135.984C142.105 137.936 142.761 139.328 144.073 140.16C145.385 140.96 147.321 141.36 149.881 141.36C152.441 141.36 154.345 140.96 155.593 140.16C156.873 139.328 157.513 137.936 157.513 135.984V112.848H161.977V136.032C161.977 141.664 157.913 144.48 149.785 144.48ZM179.055 144.48C176.399 144.48 173.231 144.224 169.551 143.712V139.824C173.263 140.624 176.527 141.024 179.343 141.024C181.711 141.024 183.439 140.768 184.527 140.256C185.615 139.712 186.159 138.72 186.159 137.28V133.248C186.159 131.904 185.775 130.96 185.007 130.416C184.239 129.872 182.895 129.6 180.975 129.6H177.327C174.287 129.6 172.127 128.992 170.847 127.776C169.567 126.56 168.927 124.672 168.927 122.112V119.616C168.927 117.92 169.295 116.544 170.031 115.488C170.799 114.432 172.063 113.648 173.823 113.136C175.615 112.624 178.063 112.368 181.167 112.368C183.247 112.368 185.919 112.544 189.183 112.896V116.4C185.535 115.856 182.751 115.584 180.831 115.584C177.855 115.584 175.887 115.872 174.927 116.448C173.935 117.056 173.439 118.064 173.439 119.472V123.024C173.439 124.112 173.823 124.912 174.591 125.424C175.391 125.904 176.751 126.144 178.671 126.144H182.415C184.559 126.144 186.223 126.4 187.407 126.912C188.623 127.424 189.471 128.208 189.951 129.264C190.463 130.288 190.719 131.68 190.719 133.44V135.696C190.719 137.904 190.303 139.648 189.471 140.928C188.671 142.208 187.423 143.12 185.727 143.664C184.031 144.208 181.807 144.48 179.055 144.48ZM197.407 112.848H218.335V116.112H202.063V126.288H216.751V129.552H202.063V140.736H218.815V144H197.407V112.848ZM237.395 144.48C235.699 144.48 234.211 144.368 232.931 144.144C231.683 143.92 230.451 143.536 229.235 142.992C227.955 142.416 226.963 141.536 226.259 140.352C225.587 139.168 225.251 137.728 225.251 136.032V112.848H229.715V135.984C229.715 137.936 230.371 139.328 231.683 140.16C232.995 140.96 234.931 141.36 237.491 141.36C240.051 141.36 241.955 140.96 243.203 140.16C244.483 139.328 245.123 137.936 245.123 135.984V112.848H249.587V136.032C249.587 141.664 245.523 144.48 237.395 144.48ZM257.688 112.848H264.648L274.632 138.768L274.776 138.816L284.232 112.848H290.952V144H286.872V117.648H286.632L276.6 144H272.424L262.104 117.648H261.864V144H257.688V112.848Z" fill="white"/>
<path d="M17 99.3669L81 56V144H17V99.3669Z" fill="#0F9BD7" fill-opacity="0.61"/>
</svg>
